<?xml version="1.0" encoding="UTF-8" standalone="no"?>
<!DOCTYPE svg PUBLIC "-//W3C//DTD SVG 1.1//EN" "http://www.w3.org/Graphics/SVG/1.1/DTD/svg11.dtd">
<svg width="100%" height="100%" viewBox="0 0 1002 238" version="1.1" xmlns="http://www.w3.org/2000/svg" xmlns:xlink="http://www.w3.org/1999/xlink" xml:space="preserve" xmlns:serif="http://www.serif.com/" style="fill-rule:evenodd;clip-rule:evenodd;stroke-linejoin:round;stroke-miterlimit:2;">
    <g transform="matrix(0.94642,0,0,0.94642,26.8425,6.36892)">
        <path d="M122.719,231.628C118.075,226.444 113.195,221.941 108.729,216.024C106.226,212.706 102.944,208.598 99.582,205.262C96.866,202.568 93.689,200.431 90.972,197.729C88.373,195.143 86.512,191.733 82.902,190.196C82.01,186.153 79.239,185.005 76.445,182.124C75.324,180.972 74.846,179.3 73.754,178.358C72.108,176.938 69.774,176.684 68.373,175.13C66.734,173.31 65.331,169.067 63.53,166.52C59.914,164.411 56.414,163.122 53.306,160.602C50.518,158.34 48.758,153.889 44.158,153.606C40.839,156.794 42.006,162.088 42.006,166.52C42.006,176.014 42.398,186.415 42.006,195.039C41.899,197.422 40.73,199.518 40.393,202.035C39.687,207.284 40.838,212.859 40.393,218.177C39.899,224.062 38.853,229.314 35.011,232.704C23.348,232.089 7.571,235.777 2.727,227.863C2.224,227.04 1.341,224.369 1.112,223.019C0.075,216.913 0.018,206.913 2.188,202.035C-0.363,197.383 0.504,191.518 0.574,185.352C0.616,181.615 -0.177,177.878 0.035,174.054C0.799,160.258 0.066,146.436 0.035,132.621C0.022,127.045 0.448,120.635 1.111,115.401C1.46,112.639 2.437,110.98 2.187,106.792C2.134,105.917 3.015,103.531 1.111,103.563C4.136,97.836 0.705,92.006 0.573,85.806C0.366,76.175 0.952,63.944 2.187,55.135C2.966,49.569 2.618,43.066 2.187,37.917C2.132,37.273 1.145,36.596 1.111,35.764C1.103,35.577 1.85,35.713 1.649,34.688C0.852,30.623 0.2,19.956 1.112,14.78C2.351,7.753 8.531,2.978 14.564,0.79C23.566,1.436 34.045,1.075 37.701,6.171C38.988,7.964 38.883,11.038 40.392,12.628C39.783,18.938 40.758,25.86 41.468,30.923C43.262,43.731 40.508,56.933 41.468,68.051C41.841,72.384 43.697,76.32 45.235,79.889C48.604,79.775 50.12,78.672 52.231,77.199C54.39,75.691 54.794,73.959 56.535,72.356C58.105,70.911 60.245,70.523 61.915,69.127C66.393,65.386 70.55,59.089 75.367,54.061C81.896,47.247 88.901,43.372 93.125,35.228C102.98,29.3 109.184,19.719 115.723,10.476C120.387,8.323 124.148,5.268 128.1,2.405C136.14,0.823 148.175,-1.116 156.618,0.79C162.95,2.22 166.758,9.38 164.152,15.318C163.298,17.264 160.911,19.997 159.309,21.776C157.549,23.73 154.951,24.823 153.39,26.618C152.184,28.006 151.773,30.362 150.161,31.999C149.289,32.885 146.914,33.397 145.856,34.69C140.893,40.756 131.393,45.518 128.1,53.523C124.909,56.305 120.59,58.319 117.875,61.594C116.699,63.014 116.361,64.953 115.186,66.437C112.487,69.844 108.235,72.204 105.501,75.584C103.834,77.643 102.869,80.469 101.196,82.579C95.728,84.068 94.949,88.59 90.434,92.804C87.582,95.465 84.909,96.937 82.362,100.336C80.441,102.902 77.714,105.732 75.905,109.483C75.743,109.819 75.641,110.704 75.366,111.098C74.287,112.645 72.218,114.527 72.138,117.017C72.034,120.301 75.919,124.14 78.056,127.778C78.785,129.018 79.115,130.955 79.671,131.544C82.536,134.592 87.397,135.967 90.432,139.616C91.491,140.889 91.994,142.384 93.123,143.921C93.597,144.568 94.234,144.802 94.737,145.536C97.842,150.066 103.022,153.74 107.651,157.911C107.964,158.194 107.909,159.311 108.19,159.526C109.033,160.172 110.589,160.144 111.418,161.139C112.195,162.073 112.786,163.28 113.57,164.368C115.34,166.819 117.607,169.723 120.027,172.44C125.125,178.159 127.069,183.329 134.018,185.891C136.875,192.602 142.758,196.316 148.009,201.495C150.92,204.368 153.804,207.265 157.156,209.566C157.745,215.61 167.989,222.643 162.537,230.55C161.014,232.76 159.004,232.01 155.004,233.241C151.418,234.345 150.726,234.627 145.317,234.317C140.36,234.032 134.059,234.971 130.252,234.317C127.098,233.776 124.921,231.266 122.719,231.628Z" style="fill:rgb(249,148,148);stroke:rgb(187,0,249);stroke-width:10.57px;"/>
        <path d="M997.645,232.167C993.117,233.483 988.792,234.721 982.579,234.319C977.375,233.983 971.115,235.048 966.975,234.319C964.079,233.808 961.889,231.285 959.442,231.628C948.643,220.725 940.43,207.235 927.694,198.268C925.798,194.784 923.32,191.88 919.624,190.197C918.731,186.154 915.962,185.006 913.168,182.125C912.04,180.964 911.569,179.319 910.477,178.359C908.846,176.927 906.523,176.711 905.095,175.131C902.904,172.703 902.488,169.066 900.252,166.521C897.77,165.685 895.831,164.111 893.795,162.755C889.863,160.132 886.347,155.37 880.882,153.607C877.55,156.804 878.73,162.204 878.73,166.521C878.73,176.062 879.084,186.317 878.73,195.04C878.679,196.28 878.485,198.166 878.191,199.345C875.823,208.894 879.832,225.624 871.735,232.705C861.722,232.107 844.095,235.767 839.451,227.864C838.545,226.321 839.736,224.499 837.836,223.02C838.044,216.314 836.868,209.501 837.836,204.724C838.317,202.353 838.913,200.312 838.374,197.192C838.002,195.032 836.879,193.904 836.761,191.811C836.638,189.691 837.276,187.49 837.299,185.353C837.341,181.635 836.472,177.749 836.761,173.517C837.184,167.324 839,160.529 838.374,154.683C838.275,153.757 837.352,152.966 837.299,151.993C836.87,144.091 836.362,135.111 837.299,127.779C837.406,126.926 837.085,125.919 837.299,125.089C837.433,124.568 838.388,123.842 838.374,124.013C838.593,121.154 837.507,117.992 837.836,115.404C838.48,110.334 839.41,102.357 838.913,95.495C838.812,94.124 838.06,93.037 837.836,91.729C837.521,89.888 838.58,87.864 837.299,86.347C839.366,80.097 836.294,69.292 837.836,58.905C839.114,50.289 839.613,35.443 837.299,29.848C838.734,25.25 837.004,19.508 837.836,14.782C839.195,7.063 845.212,3.416 851.288,0.792C857.148,2.011 865.975,0.295 871.196,2.944C878.251,6.522 876.213,17.286 877.117,27.158C877.226,28.365 877.999,29.621 878.191,30.925C880.109,43.85 877.279,59.68 878.191,68.053C878.489,70.781 880.523,70.543 878.73,72.896C881.027,74.007 880.116,78.325 881.959,79.891C888.444,80.329 890.936,74.598 894.872,71.282C896.359,70.03 898.264,69.299 899.716,68.053C903.526,64.785 906.567,59.836 910.477,55.677C917.166,48.563 925.191,43.92 929.847,35.23C939.729,29.581 946.757,18.561 952.447,10.478C957.168,8.383 960.914,5.313 964.825,2.407C976.714,-0.201 997.482,-2.37 1001.41,7.249C1001.74,8.058 1000.73,8.231 1000.88,8.863C1000.97,9.265 1001.91,9.223 1001.95,9.939C1002.41,18.032 990.822,24.868 987.425,31.462C985.724,32.273 985.31,34.371 982.581,34.152C981.266,37.908 977.22,39.286 974.509,41.685C971.87,44.022 969.977,47.232 966.977,49.218C965.69,55.091 958.914,56.769 955.139,61.056C953.676,62.716 953.3,64.723 951.91,66.436C947.343,72.069 940.923,75.559 937.922,82.579C933.002,83.809 931.671,88.291 927.696,92.265C923.95,96.012 920.371,97.778 916.935,102.489C914.437,105.914 912.836,108.793 911.017,112.175C909.517,114.962 908.672,115.799 908.865,118.093C909.167,121.716 912.151,122.613 913.706,125.089C913.893,125.385 913.266,126.399 913.706,127.241C914.369,128.506 916.596,129.901 916.935,132.084C921.546,133.93 924.21,137.723 928.235,140.155C927.87,142.496 929.954,143.688 930.926,144.998C934.639,150.01 939.981,153.287 944.916,157.912C945.187,158.168 944.651,159.262 944.916,159.527C945.459,160.07 947.357,160.204 948.144,161.14C948.881,162.017 949.604,163.388 950.296,164.369C952.685,167.752 955.872,171.435 958.904,175.132C960.425,176.984 961.317,178.037 963.209,180.512C964.886,182.705 966.728,184.457 970.204,185.354C972.266,188.494 974.066,191.885 976.661,194.502C980.026,197.893 984.144,199.643 987.425,203.648C988.754,205.275 991.388,208.141 993.881,209.568C996.092,215.825 1004.63,225.034 997.645,232.167Z" style="fill:rgb(249,148,148);stroke:rgb(187,0,249);stroke-width:10.57px;"/>
        <path d="M288.987,43.837C285.837,47.144 288.216,55.98 285.758,59.98C287.213,64.198 286.216,67.093 286.296,75.584C286.338,80.06 286.657,85.038 286.296,89.036C286.147,90.689 285.232,92.347 285.221,93.879C285.206,95.751 286.071,97.437 286.296,99.26C286.425,100.301 285.577,101.38 285.758,102.489C285.906,103.397 286.784,103.729 286.834,104.641C286.974,107.207 287.578,111.097 286.834,113.788C286.746,114.105 285.759,114.85 285.758,114.864C285.588,118.151 286.604,121.568 286.296,125.088C285.953,129.003 284.424,136.019 285.221,142.307C285.403,143.747 286.159,145.112 286.296,146.613C286.799,152.111 285.17,158.446 285.758,163.831C285.968,165.752 287.357,166.938 287.373,168.674C287.406,172.431 286.014,176.358 285.221,179.436C286.322,182.6 286.138,186.328 287.373,190.736C288.214,191.508 289.245,192.091 289.525,193.426C294.707,193.098 299.483,195.64 304.052,196.116C309.519,196.684 312.409,196.034 316.429,198.268C319.709,200.091 324.052,203.827 325.038,205.8C327.919,211.566 325.189,229.565 322.347,233.243C321.295,234.604 319.422,234.592 318.042,236.472C310.285,237.66 302.846,234.386 297.595,236.472C294.677,236.406 289.119,233.627 286.834,236.472C283.79,234.473 278.536,235.599 273.92,235.396C268.646,235.164 263.314,233.878 259.391,236.472C260.151,234.099 256.172,236.463 256.163,234.857C240.357,237.158 227.928,235.976 212.039,235.396C209.567,233.622 208.231,231.258 207.197,227.325C205.734,221.762 205.187,208.165 208.273,202.573C213.452,193.187 227.933,196.441 241.096,195.04C248.585,187.855 245.248,178.199 244.863,167.598C244.759,164.746 245.835,161.215 245.938,157.375C246.092,151.611 245.075,145.055 245.938,139.617C246.277,137.484 247.35,134.906 247.015,131.008C246.829,128.858 245.616,126.678 245.4,124.551C245.072,121.322 245.964,117.725 245.938,114.327C245.83,100.059 246.759,73.028 244.863,59.443C243.931,52.776 244.014,48.186 241.096,43.839C233.209,40.247 218.02,43.956 209.349,41.148C206.394,37.582 206.748,32.827 205.044,27.158C204.451,25.184 204.693,26.366 205.044,22.854C205.849,14.789 208.101,7.64 213.654,4.021C222.504,3.333 231.268,1.552 241.633,2.408C243.84,2.59 246.413,2.587 248.09,4.021C250.509,3.551 252.127,2.923 254.547,2.945C256.975,2.967 258.766,4.013 261.005,4.021C262.482,4.027 263.674,3.136 265.309,2.945C268.522,2.569 272.93,2.419 276.609,2.945C277.199,3.03 278.313,4.021 278.761,4.021C279.531,4.023 280.846,3.059 281.99,2.945C285.007,2.644 289.469,2.265 292.214,4.021C294.677,2.69 298.289,2.382 300.824,2.408C303.918,2.438 308.446,3.228 312.124,4.021C316.466,4.959 321.387,5.98 323.424,8.864C323.632,9.16 323.158,10.245 323.424,10.478C323.543,10.583 324.446,10.347 324.499,10.478C325.308,12.459 326.676,21.014 326.114,25.006C325.887,26.613 324.773,28.847 323.962,30.925C322.417,34.883 320.779,40.144 316.966,41.687C313.061,43.268 308.479,41.837 304.051,42.225C298.787,42.684 294.159,43.713 288.987,43.837Z" style="fill:rgb(249,148,148);stroke:rgb(187,0,249);stroke-width:10.57px;"/>
        <path d="M756.045,4.558C762.101,9.212 771.435,16.943 778.645,22.314C782.03,24.837 784.848,27.874 788.33,31.461C792.976,36.245 796.93,40.277 794.786,49.217C793.779,53.425 790.307,54.743 788.868,59.441C786.626,60.477 785.214,61.655 782.95,63.207C780.447,64.921 777.066,69.483 773.263,69.665C768.617,69.887 763.38,63.811 759.273,59.979C754.773,55.781 751.246,50.718 745.821,49.755C744.667,47.144 742.119,45.926 740.441,43.837C736.226,42.42 731.456,43.69 726.451,43.298C722.025,42.953 717.859,41.652 712.998,42.222C711.039,42.452 709.222,43.576 707.08,43.837C703.959,44.216 700.418,43.831 696.855,43.837C686.734,43.855 671.933,41.76 665.108,45.451C663.511,45.445 664.052,46.494 663.494,47.066C661.818,48.78 659.987,49.191 658.113,50.832C653.764,54.647 651.107,60.403 645.738,63.208C645.013,64.926 646.174,67.014 645.199,69.127C644.297,71.087 645.403,68.984 645.199,71.818C645.114,73.019 644.324,73.234 644.125,74.508C644.203,73.994 646.205,75.812 644.125,76.122C645.587,80.22 645.559,85.807 648.965,87.96C656.158,88.58 662.742,93.305 671.029,93.879C681.66,94.616 693.166,93.084 702.237,97.646C713.914,98.126 724.517,100.437 736.136,101.95C736.931,102.054 740.46,101.789 741.516,102.488C741.958,102.782 741.259,103.427 742.054,103.564C747.642,104.528 753.295,103.051 758.198,104.102C759.63,104.41 761.052,105.519 762.503,105.716C766.094,106.206 769.59,105.373 772.725,106.255C774.778,106.831 776.575,108.74 778.646,110.022C784.83,113.85 789.896,116.61 793.711,123.474C795.947,127.495 796.464,132.042 798.555,136.388C799.479,141.417 798.888,145.724 799.093,149.303C799.109,149.603 800.188,149.72 800.168,150.378C800.155,150.829 799.689,152.94 799.63,154.144C799.56,155.622 799.102,157.15 799.093,158.988C799.078,161.945 800.424,165.186 800.168,168.135C800.092,169.013 799.314,170.31 799.093,171.364C798.402,174.638 797.778,178.58 796.941,182.125C795.886,186.582 793.699,190.384 792.634,195.04C786.734,201.314 778.681,205.662 773.264,212.797C771.36,215.306 770.67,219.068 768.421,221.405C765.305,224.644 760.298,225.669 757.121,228.94C752.486,228.168 748.451,232.435 743.133,233.244C736.367,234.273 727.865,232.356 720.533,233.244C716.999,233.671 712.858,235.522 708.694,233.244C700.42,234.324 690.951,235.413 682.328,234.32C680.773,234.124 679.491,233.378 678.023,233.244C670.317,232.539 662.564,234.866 655.423,233.244C653.505,232.808 652.247,230.642 650.042,229.476C646.751,227.737 639.994,227.131 637.128,224.634C635.683,223.375 635.003,220.646 633.36,218.715C631.59,216.632 628.602,215.52 626.367,213.334C624.917,211.919 624.033,209.419 622.598,207.952C620.709,206.018 618.162,205.255 616.68,203.647C615.358,202.215 614.758,199.959 613.451,198.267C611.94,196.308 610.309,195.44 609.685,193.962C609.16,192.72 610.198,191.154 608.608,190.733C609.799,181.861 616.223,173.615 623.137,169.21C625.442,167.742 631.166,166.264 636.05,167.596C640.705,170.948 643.237,176.431 647.889,179.971C648.393,180.355 649.1,180.181 649.502,180.51C651.501,182.145 655.44,184.275 658.111,185.891C659.322,187.503 661.542,190.737 664.031,191.81C664.791,192.137 665.949,191.508 666.722,191.81C667.29,192.033 667.107,192.754 667.796,192.886C681.003,195.401 696.93,193.004 710.305,192.886C712.089,192.87 713.658,193.597 716.226,192.886C717.97,192.404 717.222,192.19 719.992,192.886C726.902,194.622 736.424,192.271 740.976,189.658C743.689,188.1 745.613,184.872 748.509,182.123C751.518,179.273 754.806,177.514 756.043,175.13C756.337,174.563 755.757,173.549 756.043,172.977C756.919,171.226 757.231,167.765 757.657,164.368C758.044,161.258 759.397,158.251 759.27,155.759C759.217,154.707 758.264,154.574 758.195,154.144C758.133,153.775 759.032,153.218 758.733,152.531C758.172,151.248 755.813,148.825 753.89,147.688C753.17,147.262 751.854,147.635 750.661,147.151C749.407,146.64 745.884,144.303 743.666,143.922C741.054,143.473 737.962,144.151 735.057,143.922C731.714,143.659 729.174,142.341 726.449,142.308C724.42,142.509 721.301,143.297 718.379,142.846C715.688,142.431 713.568,140.306 711.383,139.617C710.034,139.193 707.488,138.855 705.463,138.541C704.826,138.442 704.52,139.116 703.85,139.079C703.053,139.034 702.301,138.051 701.698,138.003C698.888,137.783 695.446,137.674 692.55,138.003C690.794,138.203 688.976,139.154 687.169,139.079C683.411,138.923 680.578,136.314 676.946,135.312C675.201,134.83 672.615,135.177 670.489,134.775C668.846,134.463 667.536,133.706 666.184,133.699C664.146,133.685 661.764,134.826 659.727,134.775C658.646,134.746 656.614,134.02 654.884,133.699C653.098,133.365 650.969,133.451 649.502,133.16C648.629,132.987 647.615,132.181 646.812,132.084C644.649,131.822 642.122,132.472 639.819,132.084C638.171,131.807 637.364,130.549 635.512,129.932C629.998,128.092 622.786,127.231 619.908,125.627C618.339,124.752 616.056,121.778 613.989,120.247C611.949,118.732 611.145,117.058 609.147,114.865C608.367,113.026 608.442,111.17 607.533,108.946C606.893,107.384 605.072,105.974 604.843,104.641C604.565,103.023 605.732,100.985 605.919,98.184C606.439,90.403 606.003,77.792 605.919,67.513C605.898,64.997 606.285,61.954 605.919,60.518C605.852,60.251 604.845,59.376 604.843,59.442C604.87,58.694 605.751,56.453 605.919,55.675C606.851,51.391 609.869,47.2 610.224,43.838C613.007,42.386 612.891,39.638 614.529,37.38C618.245,32.257 625.032,29.582 627.443,22.852C632.885,21.301 634.974,16.393 639.82,14.242C642.789,10.218 648.913,9.346 652.195,5.634C658.991,4.423 670.578,4.172 678.023,2.943C688.693,1.182 698.922,3.922 708.156,1.867C710.582,1.328 713.325,4.199 715.689,4.558C719.574,5.147 723.175,3.012 726.989,2.943C729.361,2.901 731.752,3.978 733.984,4.019C736.332,4.063 738.16,3.073 740.441,2.943C745.683,2.646 750.751,4.743 756.045,4.558Z" style="fill:rgb(249,148,148);stroke:rgb(187,0,249);stroke-width:10.57px;"/>
        <path d="M493.997,2.942C499.756,5.155 506.237,3.388 511.755,4.557C516.887,5.644 521.179,9.129 526.282,8.861C528.119,10.373 529.257,12.492 531.125,14.241C531.788,14.863 532.757,14.71 533.277,15.317C534.993,17.317 535.845,20.165 537.582,22.313C540.093,25.417 543.988,27.365 546.729,30.385C550.155,34.157 551.637,38.918 555.876,41.684C556.152,45.923 560.865,50.422 561.794,54.598C563.234,61.08 561.304,70.149 562.333,78.275C562.481,79.451 563.292,81.298 563.41,82.579C563.71,85.874 562.735,89.124 562.871,92.804C562.952,95.001 563.898,97.494 563.946,99.798C564.103,107.135 561.732,114.804 561.794,122.399C561.859,130.346 563.356,137.313 563.41,143.383C563.44,147.026 562.619,150.605 562.871,153.607C563.114,156.513 564.008,158.726 563.946,161.14C563.879,163.882 562.472,165.82 562.333,167.059C560.833,180.374 563.43,189.537 557.49,198.268C555.283,201.514 552.443,203.779 549.42,206.876C545.631,210.757 541.524,215.13 537.042,218.715C534.831,220.486 531.891,221.742 530.049,223.558C527.383,226.185 527.049,229.815 522.516,231.628C520.598,232.397 510.051,237.077 506.911,237.548C501.76,238.32 495.478,236.479 489.692,236.472C482.484,236.464 474.82,237.82 467.63,235.396C464.751,237.255 461.381,236.31 458.484,236.472C449.072,236.996 435.899,238.498 426.199,236.472C423.506,235.91 420.243,234.736 417.59,233.781C412.916,232.102 410.325,229.802 406.828,227.325C403.123,224.7 399.691,222.806 396.066,219.254C392.872,216.121 390.982,212.613 386.919,209.568C385.886,208.794 383.884,207.83 383.153,206.877C382.225,205.67 382.152,203.157 381.001,201.497C379.375,199.149 376.412,197.88 375.083,195.578C374.146,193.959 373.942,191.392 372.93,189.121C371.558,186.044 369.373,183.314 369.163,181.588C369.026,180.457 369.605,179.242 369.702,177.821C370.081,172.242 369.739,169.068 369.702,164.907C369.521,144.433 370.05,121.912 369.163,100.875C368.549,86.283 368.666,67.952 370.778,54.062C372.09,52.684 372.721,50.624 372.93,48.144C376.596,43.357 379.151,37.965 383.154,33.616C386.58,29.893 390.83,26.927 393.915,22.854C401.624,20.643 403.919,12.801 410.058,8.864C414.281,6.156 419.249,6.566 425.662,5.636C430.144,4.986 434.47,2.968 438.576,2.945C440.792,2.933 442.395,3.799 444.496,4.021C456.39,5.284 464.499,1.647 476.78,2.945C482.072,3.502 488.206,6.43 493.997,2.942ZM506.373,47.604C504.689,46.345 503.051,45.029 501.53,44.375C497.252,42.535 492.963,45.364 488.078,45.451C485.565,45.496 483.17,44.346 480.008,43.837C474.946,43.024 468.931,43.823 463.865,43.298C461.566,43.06 459.703,42.254 457.408,42.222C455.762,42.199 456.867,42.944 455.256,43.298C450.064,44.441 444.635,43.75 439.113,44.374C438.422,44.453 437.801,45.244 436.961,45.45C435.603,45.783 434.209,45.169 433.195,45.45C431.277,45.981 427.848,47.938 426.737,48.679C420.802,52.636 415.632,58.118 410.595,62.131C407.289,68.53 408.292,80.21 408.443,88.497C408.534,93.514 408.053,98.316 407.904,103.563C407.634,113.095 407.665,124.417 408.98,133.158C409.257,135.003 410.056,136.703 410.056,138.539C410.056,142.467 408.683,145.353 408.98,149.839C409.125,152.023 409.855,151.563 410.056,152.529C410.036,152.431 408.985,153.039 408.98,153.066C408.834,153.754 410.062,153.578 410.056,154.142C410.038,155.939 409.095,157.779 408.98,159.525C408.094,172.883 413.445,180.75 421.356,184.277C423.462,189.522 428.467,191.873 433.194,194.5C435.167,194.188 435.366,194.238 438.036,193.962C441.637,195.625 446.062,195.899 450.412,196.114C456.74,196.429 463.631,195.87 470.321,195.576C477.318,195.267 487.528,196.719 492.382,195.038C497.72,193.19 502.873,190.807 508.525,187.506C509.872,186.718 511.1,186.201 512.291,185.352C514.601,183.709 517.445,182.274 519.286,180.51C522.601,177.338 523.348,168.312 523.591,163.829C523.653,162.74 522.995,161.68 523.055,160.601C523.092,159.899 524.014,159.079 524.13,158.447C525.029,153.545 523.698,149.357 524.669,144.996C524.97,143.636 525.645,143.006 525.743,141.767C526.113,137.121 524.384,132.453 524.669,127.777C524.815,125.383 525.728,123.105 525.743,120.782C525.78,115.666 523.943,110.021 524.669,104.101C524.809,102.957 525.623,101.666 525.743,100.334C526.196,95.41 525.077,91.02 524.669,86.344C524.235,81.392 525.341,76.417 524.669,71.816C524.232,68.837 521.886,66.199 522.517,63.206C519.194,58.303 511.711,51.595 506.373,47.604Z" style="fill:rgb(249,148,148);stroke:rgb(187,0,249);stroke-width:10.57px;"/>
    </g>
</svg>
